<mxfile host="app.diagrams.net" modified="2023-05-21T19:39:49.888Z" agent="Mozilla/5.0 (Windows NT 10.0; Win64; x64) AppleWebKit/537.36 (KHTML, like Gecko) Chrome/113.0.0.0 Safari/537.36" etag="9v-RaPlV-1RCyhtWCXAK" version="21.3.2" type="device">
  <diagram name="PÃ¡gina-1" id="6IQM5p6N6U-k9PKLIWWc">
    <mxGraphModel dx="936" dy="430" grid="1" gridSize="10" guides="1" tooltips="1" connect="1" arrows="1" fold="1" page="1" pageScale="1" pageWidth="827" pageHeight="1169" math="0" shadow="0">
      <root>
        <mxCell id="0" />
        <mxCell id="1" parent="0" />
        <mxCell id="36Uy8NqWqfIy4QQ1mpLo-1" value="Seguradora" style="swimlane;fontStyle=1;align=center;verticalAlign=top;childLayout=stackLayout;horizontal=1;startSize=26;horizontalStack=0;resizeParent=1;resizeParentMax=0;resizeLast=0;collapsible=1;marginBottom=0;whiteSpace=wrap;html=1;" vertex="1" parent="1">
          <mxGeometry x="210" y="140" width="170" height="94" as="geometry" />
        </mxCell>
        <mxCell id="36Uy8NqWqfIy4QQ1mpLo-2" value="&lt;div&gt;- nome: String&lt;/div&gt;&lt;div&gt;- desconto: Double&lt;/div&gt;" style="text;strokeColor=none;fillColor=none;align=left;verticalAlign=top;spacingLeft=4;spacingRight=4;overflow=hidden;rotatable=0;points=[[0,0.5],[1,0.5]];portConstraint=eastwest;whiteSpace=wrap;html=1;" vertex="1" parent="36Uy8NqWqfIy4QQ1mpLo-1">
          <mxGeometry y="26" width="170" height="34" as="geometry" />
        </mxCell>
        <mxCell id="36Uy8NqWqfIy4QQ1mpLo-3" value="" style="line;strokeWidth=1;fillColor=none;align=left;verticalAlign=middle;spacingTop=-1;spacingLeft=3;spacingRight=3;rotatable=0;labelPosition=right;points=[];portConstraint=eastwest;strokeColor=inherit;" vertex="1" parent="36Uy8NqWqfIy4QQ1mpLo-1">
          <mxGeometry y="60" width="170" height="8" as="geometry" />
        </mxCell>
        <mxCell id="36Uy8NqWqfIy4QQ1mpLo-4" value="+ aplicarDesconto(): Double" style="text;strokeColor=none;fillColor=none;align=left;verticalAlign=top;spacingLeft=4;spacingRight=4;overflow=hidden;rotatable=0;points=[[0,0.5],[1,0.5]];portConstraint=eastwest;whiteSpace=wrap;html=1;" vertex="1" parent="36Uy8NqWqfIy4QQ1mpLo-1">
          <mxGeometry y="68" width="170" height="26" as="geometry" />
        </mxCell>
        <mxCell id="36Uy8NqWqfIy4QQ1mpLo-5" value="Seguro" style="swimlane;fontStyle=1;align=center;verticalAlign=top;childLayout=stackLayout;horizontal=1;startSize=26;horizontalStack=0;resizeParent=1;resizeParentMax=0;resizeLast=0;collapsible=1;marginBottom=0;whiteSpace=wrap;html=1;" vertex="1" parent="1">
          <mxGeometry x="480" y="140" width="170" height="94" as="geometry" />
        </mxCell>
        <mxCell id="36Uy8NqWqfIy4QQ1mpLo-6" value="&lt;div&gt;- veiculo: Veiculo&lt;/div&gt;&lt;div&gt;- seguradora: Seguradora&lt;/div&gt;" style="text;strokeColor=none;fillColor=none;align=left;verticalAlign=top;spacingLeft=4;spacingRight=4;overflow=hidden;rotatable=0;points=[[0,0.5],[1,0.5]];portConstraint=eastwest;whiteSpace=wrap;html=1;" vertex="1" parent="36Uy8NqWqfIy4QQ1mpLo-5">
          <mxGeometry y="26" width="170" height="34" as="geometry" />
        </mxCell>
        <mxCell id="36Uy8NqWqfIy4QQ1mpLo-7" value="" style="line;strokeWidth=1;fillColor=none;align=left;verticalAlign=middle;spacingTop=-1;spacingLeft=3;spacingRight=3;rotatable=0;labelPosition=right;points=[];portConstraint=eastwest;strokeColor=inherit;" vertex="1" parent="36Uy8NqWqfIy4QQ1mpLo-5">
          <mxGeometry y="60" width="170" height="8" as="geometry" />
        </mxCell>
        <mxCell id="36Uy8NqWqfIy4QQ1mpLo-8" value="+ aplicarDesconto(): Double" style="text;strokeColor=none;fillColor=none;align=left;verticalAlign=top;spacingLeft=4;spacingRight=4;overflow=hidden;rotatable=0;points=[[0,0.5],[1,0.5]];portConstraint=eastwest;whiteSpace=wrap;html=1;" vertex="1" parent="36Uy8NqWqfIy4QQ1mpLo-5">
          <mxGeometry y="68" width="170" height="26" as="geometry" />
        </mxCell>
        <mxCell id="36Uy8NqWqfIy4QQ1mpLo-9" style="edgeStyle=orthogonalEdgeStyle;rounded=0;orthogonalLoop=1;jettySize=auto;html=1;" edge="1" parent="1" source="36Uy8NqWqfIy4QQ1mpLo-2" target="36Uy8NqWqfIy4QQ1mpLo-6">
          <mxGeometry relative="1" as="geometry" />
        </mxCell>
        <mxCell id="36Uy8NqWqfIy4QQ1mpLo-10" value="1" style="text;align=center;fontStyle=1;verticalAlign=middle;spacingLeft=3;spacingRight=3;strokeColor=none;rotatable=0;points=[[0,0.5],[1,0.5]];portConstraint=eastwest;html=1;" vertex="1" parent="1">
          <mxGeometry x="380" y="160" width="20" height="16" as="geometry" />
        </mxCell>
        <mxCell id="36Uy8NqWqfIy4QQ1mpLo-11" value="*" style="text;align=center;fontStyle=1;verticalAlign=middle;spacingLeft=3;spacingRight=3;strokeColor=none;rotatable=0;points=[[0,0.5],[1,0.5]];portConstraint=eastwest;html=1;" vertex="1" parent="1">
          <mxGeometry x="460" y="160" width="20" height="16" as="geometry" />
        </mxCell>
      </root>
    </mxGraphModel>
  </diagram>
</mxfile>
